PathFileType	4	(X/Y/Z)	/Users/itak/Documents/Research/Walk-IL/dataset/trc/00091_00006.trc
DataRate	CameraRate	NumFrames	NumMarkers	Units	OrigDataRate	OrigDataStartFrame	OrigNumFrames
100.000000	100.000000	4	53	mm	100.000000	452	517
Frame#	Time	RPSI			LPSI			L3			STRN			T10			C7			CLAV			RBAK			LBAK			LSHO			LUPA			LAEL			LAOL			LWTS			LWPS			LFRA			LHPS			LHTS			RSHO			RUPA			RAEL			RAOL			RWTS			RWPS			RFRA			RIFD			RHTS			RBHD			LFHD			RFHD			LBHD			LHIP			RHIP			RASI			LASI			LKNE			LTHI			LANK			LTIP			LTOE			LMT1			LMT5			LHEE			RKNE			RTHI			RANK			RTIP			RTOE			RMT1			RMT5			LIFD			RHPS			RHEE			
		X1	Y1	Z1	X2	Y2	Z2	X3	Y3	Z3	X4	Y4	Z4	X5	Y5	Z5	X6	Y6	Z6	X7	Y7	Z7	X8	Y8	Z8	X9	Y9	Z9	X10	Y10	Z10	X11	Y11	Z11	X12	Y12	Z12	X13	Y13	Z13	X14	Y14	Z14	X15	Y15	Z15	X16	Y16	Z16	X17	Y17	Z17	X18	Y18	Z18	X19	Y19	Z19	X20	Y20	Z20	X21	Y21	Z21	X22	Y22	Z22	X23	Y23	Z23	X24	Y24	Z24	X25	Y25	Z25	X26	Y26	Z26	X27	Y27	Z27	X28	Y28	Z28	X29	Y29	Z29	X30	Y30	Z30	X31	Y31	Z31	X32	Y32	Z32	X33	Y33	Z33	X34	Y34	Z34	X35	Y35	Z35	X36	Y36	Z36	X37	Y37	Z37	X38	Y38	Z38	X39	Y39	Z39	X40	Y40	Z40	X41	Y41	Z41	X42	Y42	Z42	X43	Y43	Z43	X44	Y44	Z44	X45	Y45	Z45	X46	Y46	Z46	X47	Y47	Z47	X48	Y48	Z48	X49	Y49	Z49	X50	Y50	Z50	X51	Y51	Z51	X52	Y52	Z52	X53	Y53	Z53	

453	4.52	51.42757797241211	1031.569702148438	1012.23681640625	226.2470397949219	1016.629638671875	1003.955200195312	148.4916687011719	1085.72705078125	1008.005737304688	139.6537017822266	1295.445922851562	1253.214599609375	161.1305389404297	1215.365234375	987.9596557617188	153.5590209960938	1485.49169921875	1032.613037109375	138.9296112060547	1408.854370117188	1216.595458984375	87.61670684814453	1341.138549804688	971.1239624023438	258.3161315917969	1450.684692382812	1021.355163574219	319.5257263183594	1464.812133789062	1130.55859375	404.1920166015625	1341.57177734375	1134.275268554688	436.2967224121094	1134.93603515625	1187.666748046875	359.0810852050781	1103.4892578125	1119.693359375	379.9226379394531	912.7221069335938	1315.495239257812	442.9703369140625	893.6019287109375	1262.632080078125	448.0507202148438	1031.528076171875	1226.499389648438	439.7382507324219	820.6594848632812	1310.40625	385.8872375488281	837.013916015625	1353.1884765625	-25.90709495544434	1442.8935546875	1083.248168945312	-84.94867706298828	1370.166015625	1067.94189453125	-99.22425842285156	1105.192260742188	1040.838134765625	9.251363754272461	1081.419799804688	1075.133178710938	-92.86872863769531	862.0891723632812	1198.055297851562	-124.1138763427734	842.4260864257812	1118.438232421875	-107.2370681762695	1026.64892578125	1055.058837890625	-75.37461853027344	675.435546875	1216.418090820312	-98.69793701171875	762.8644409179688	1226.37451171875	64.07794952392578	1639.972412109375	1048.718017578125	165.3949584960938	1724.079345703125	1227.649169921875	42.90498733520508	1702.830688476562	1207.2109375	198.0890960693359	1669.248657226562	1060.98291015625	316.5627746582031	957.5108032226562	1111.150512695312	-28.3911190032959	968.6714477539062	1085.398559570312	-4.863489627838135	995.2457885742188	1208.368896484375	262.0035095214844	976.7774047851562	1219.682373046875	230.9754791259766	504.7093200683594	1230.259033203125	279.356689453125	638.8483276367188	1188.356689453125	242.4342956542969	48.78701019287109	1113.459106445312	247.8905181884766	260.8892517089844	1171.413208007812	207.9588928222656	44.27700805664062	1320.014526367188	162.1970672607422	43.71398544311523	1262.337280273438	266.8674621582031	42.00994873046875	1220.8701171875	172.0245666503906	48.11322784423828	1053.130615234375	-38.40781021118164	536.0135498046875	1232.076171875	-48.24439239501953	807.4769287109375	1194.111083984375	-82.07537078857422	48.43350219726562	1157.783447265625	-56.82143783569336	413.3091430664062	1216.623779296875	-17.41133499145508	70.93985748291016	1357.526611328125	13.94023036956787	64.56029510498047	1294.904541015625	-83.99332427978516	58.7872314453125	1280.020263671875	364.7400512695312	733.610107421875	1358.8701171875	-136.6283569335938	755.1064453125	1158.8359375	-31.18835067749023	48.71257781982422	1105.19384765625	
454	4.53	50.66128540039062	1031.424682617188	1015.314086914062	225.4225006103516	1016.403259277344	1006.774230957031	147.7418212890625	1085.668334960938	1010.801940917969	139.2848968505859	1295.338989257812	1256.0419921875	160.548828125	1215.21337890625	990.7597045898438	153.1563262939453	1485.354370117188	1035.399169921875	138.5126342773438	1408.693115234375	1219.30908203125	87.07753753662109	1341.075317382812	973.895751953125	257.9325256347656	1450.5	1024.104370117188	319.1915588378906	1464.580444335938	1133.304321289062	403.7145690917969	1341.237426757812	1137.071655273438	435.4973449707031	1134.5458984375	1190.6572265625	358.3453674316406	1103.2001953125	1122.603637695312	378.2183837890625	912.6627807617188	1318.699584960938	441.3058166503906	893.2813720703125	1266.058471679688	446.931884765625	1031.1484375	1229.669677734375	437.7803039550781	820.4368286132812	1313.97802734375	383.8834533691406	837.0825805664062	1356.650512695312	-26.32377815246582	1442.802978515625	1086.1455078125	-85.38006591796875	1370.071166992188	1070.877319335938	-99.62638092041016	1105.0751953125	1043.822265625	7.536350250244141	1081.719604492188	1077.9140625	-93.02558135986328	861.8123779296875	1200.649291992188	-124.4956512451172	842.2785034179688	1121.140625	-107.6093902587891	1026.558471679688	1057.987060546875	-75.67634582519531	675.16162109375	1218.782470703125	-98.91207122802734	762.5300903320312	1228.889770507812	63.83281326293945	1639.929565429688	1051.698974609375	165.1089172363281	1723.869384765625	1230.730590820312	42.60806274414062	1702.703979492188	1210.233642578125	197.8489532470703	1669.15478515625	1064.048095703125	316.0155639648438	957.3983154296875	1113.838500976562	-29.04696273803711	968.5946044921875	1088.688598632812	-5.281034469604492	995.1333618164062	1211.58447265625	261.6283569335938	976.7327880859375	1222.521362304688	230.7061767578125	504.3580627441406	1231.97802734375	278.9138488769531	638.6356201171875	1190.304321289062	242.3534088134766	48.82803344726562	1113.485961914062	247.7080230712891	260.7614135742188	1172.203369140625	208.0201873779297	44.2979736328125	1320.074096679688	162.1311645507812	43.51687240600586	1262.255004882812	266.8160400390625	42.042236328125	1220.857421875	171.977294921875	48.1954345703125	1053.1337890625	-38.17819595336914	535.7852172851562	1234.185546875	-48.45071029663086	807.1918334960938	1197.135864257812	-80.16712951660156	47.90196990966797	1162.566040039062	-56.21605682373047	413.0101928710938	1219.132446289062	-15.79604244232178	66.86084747314453	1363.308227539062	15.63497161865234	62.59836196899414	1300.301391601562	-82.30615997314453	56.69495391845703	1285.286499023438	362.449462890625	733.7787475585938	1362.496704101562	-136.9886322021484	754.8961181640625	1161.4228515625	-29.28397941589355	48.76662063598633	1109.967041015625	
455	4.54	49.80696487426758	1031.224487304688	1018.382202148438	224.5025024414062	1016.172668457031	1009.556457519531	146.8863067626953	1085.57275390625	1013.546630859375	138.8600616455078	1295.227783203125	1258.777954101562	159.8394165039062	1215.03125	993.4896850585938	152.6707458496094	1485.193481445312	1038.084228515625	138.0649566650391	1408.538818359375	1221.940673828125	86.43716430664062	1340.979858398438	976.5966796875	257.4549560546875	1450.280151367188	1026.716064453125	318.8038024902344	1464.31640625	1135.892211914062	403.1592712402344	1340.851684570312	1139.677001953125	434.5860900878906	1134.094604492188	1193.4423828125	357.4671936035156	1102.872192382812	1125.3291015625	376.4192199707031	912.5235595703125	1321.65966796875	439.537841796875	892.8975830078125	1269.236694335938	445.7005310058594	1030.703247070312	1232.615478515625	435.7447509765625	820.1378173828125	1317.29052734375	381.8097839355469	837.0869750976562	1359.884643554688	-26.81728172302246	1442.70361328125	1088.998413085938	-85.90278625488281	1369.9755859375	1073.79296875	-100.1413803100586	1104.948974609375	1046.8076171875	5.352963924407959	1082.190795898438	1080.627807617188	-93.1773681640625	861.5336303710938	1203.213989257812	-124.958984375	842.1280517578125	1123.880126953125	-108.0885696411133	1026.469604492188	1060.920776367188	-76.00112152099609	674.9110107421875	1221.161987304688	-99.12545013427734	762.2301635742188	1231.439697265625	63.53834533691406	1639.892456054688	1054.597778320312	164.7855682373047	1723.634765625	1233.74072265625	42.27721786499023	1702.550048828125	1213.18603515625	197.5666961669922	1669.060180664062	1067.028930664062	315.39404296875	957.3078002929688	1116.492309570312	-29.78140640258789	968.3960571289062	1091.929077148438	-5.777716159820557	994.956298828125	1214.778198242188	261.1898803710938	976.7078247070312	1225.336791992188	230.4286804199219	504.0216674804688	1233.603637695312	278.416748046875	638.4426879882812	1192.144775390625	242.2756805419922	48.86960601806641	1113.510498046875	247.5431823730469	260.6551818847656	1172.940795898438	208.0884552001953	44.32265090942383	1320.126342773438	162.0798797607422	43.34107971191406	1262.17724609375	266.7735595703125	42.07335662841797	1220.838134765625	171.9225921630859	48.27666473388672	1053.13037109375	-37.89557647705078	535.478515625	1236.301147460938	-48.67499923706055	806.836669921875	1200.136108398438	-78.23604583740234	47.6565055847168	1165.834228515625	-55.5379638671875	412.62646484375	1221.36181640625	-15.03625869750977	62.60237503051758	1368.013305664062	16.77089500427246	60.58930969238281	1304.695556640625	-81.06462097167969	54.78954315185547	1289.09765625	360.0883178710938	733.8763427734375	1365.8994140625	-137.4098815917969	754.696533203125	1164.077514648438	-27.18213081359863	48.95510101318359	1113.386840820312	
456	4.55	48.87311553955078	1030.977783203125	1021.444519042969	223.5097808837891	1015.93896484375	1012.3095703125	145.9378356933594	1085.434936523438	1016.252990722656	138.3784637451172	1295.114990234375	1261.42626953125	159.0094146728516	1214.819091796875	996.1575927734375	152.1085052490234	1485.0078125	1040.671264648438	137.5892944335938	1408.394653320312	1224.49609375	85.69847106933594	1340.848876953125	979.2360229492188	256.8840637207031	1450.025390625	1029.195922851562	318.3612976074219	1464.023559570312	1138.32958984375	402.5285339355469	1340.421020507812	1142.10205078125	433.5640258789062	1133.587646484375	1196.023315429688	356.44677734375	1102.51171875	1127.875244140625	374.5347595214844	912.31494140625	1324.386352539062	437.6775512695312	892.455810546875	1272.162353515625	444.3552856445312	1030.196655273438	1235.337524414062	433.6315307617188	819.76708984375	1320.33642578125	379.677001953125	837.0191040039062	1362.875122070312	-27.38545227050781	1442.602783203125	1091.806396484375	-86.51557922363281	1369.888793945312	1076.685546875	-100.760612487793	1104.823120117188	1049.7841796875	2.796452283859253	1082.807495117188	1083.282958984375	-93.34077453613281	861.2638549804688	1205.762084960938	-125.4903182983398	841.9854736328125	1126.651245117188	-108.6663818359375	1026.387451171875	1063.8505859375	-76.33428955078125	674.683837890625	1223.56005859375	-99.35320281982422	761.9749145507812	1234.024169921875	63.19741058349609	1639.864501953125	1057.413208007812	164.4281311035156	1723.373779296875	1236.678955078125	41.91529846191406	1702.37060546875	1216.066772460938	197.2471618652344	1668.962524414062	1069.924072265625	314.708251953125	957.2421264648438	1119.120727539062	-30.57870674133301	968.0781860351562	1095.124633789062	-6.339620113372803	994.7130126953125	1217.955200195312	260.7046813964844	976.7061767578125	1228.13037109375	230.1425933837891	503.6980895996094	1235.1435546875	277.8802185058594	638.2752685546875	1193.89013671875	242.2035217285156	48.90802001953125	1113.532104492188	247.4047698974609	260.5704956054688	1173.63232421875	208.1608276367188	44.34918212890625	1320.16943359375	162.0463256835938	43.20510101318359	1262.113647460938	266.7418518066406	42.10138320922852	1220.815551757812	171.8642120361328	48.35910034179688	1053.123413085938	-37.58754348754883	535.0769653320312	1238.390380859375	-48.93361663818359	806.4197387695312	1203.108032226562	-76.371337890625	47.61054229736328	1167.820678710938	-54.82665634155273	412.1524047851562	1223.3193359375	-14.99129390716553	58.45719909667969	1371.715087890625	17.40958976745605	58.665771484375	1308.158569335938	-80.21807861328125	53.13578796386719	1291.634155273438	357.6487121582031	733.8922729492188	1369.057983398438	-137.8797760009766	754.5167846679688	1166.7900390625	-25.0174503326416	49.16667938232422	1115.634399414062	
